<?xml version="1.0" encoding="utf-8"?>
<!-- Generator: Adobe Illustrator 16.0.0, SVG Export Plug-In . SVG Version: 6.00 Build 0)  -->
<!DOCTYPE svg PUBLIC "-//W3C//DTD SVG 1.1//EN" "http://www.w3.org/Graphics/SVG/1.1/DTD/svg11.dtd">
<svg version="1.1" id="Layer_1" xmlns="http://www.w3.org/2000/svg" xmlns:xlink="http://www.w3.org/1999/xlink" x="0px" y="0px"
	 width="106.5px" height="106.5px" viewBox="0 0 106.5 106.5" enable-background="new 0 0 106.5 106.5" xml:space="preserve">
<title>logo_conda_RGB_inkscape</title>
<desc>Created with Sketch.</desc>
<g id="g19" transform="translate(2.309575, 2.309575)">
	<g id="g23">
		<path id="path25" fill="#43B02A" stroke="#43B02A" stroke-width="0.25" d="M50.301,21.594c-0.693-1.27-2.079-3.811-4.503-6.236
			c-0.809,3.464-0.809,6.467-0.693,7.968C44.989,23.327,47.298,22.172,50.301,21.594L50.301,21.594z"/>
		<path id="path27" fill="#43B02A" stroke="#43B02A" stroke-width="0.25" d="M3.878-1.732"/>
		<path id="path29" fill="#43B02A" stroke="#43B02A" stroke-width="0.25" d="M3.878-1.732"/>
		<path id="path31" fill="#43B02A" stroke="#43B02A" stroke-width="0.25" d="M3.878-1.732"/>
		<path id="path35" fill="#43B02A" stroke="#43B02A" stroke-width="0.25" d="M39.562,26.444c-1.271-1.039-3.695-2.887-7.275-4.388
			c0.924,3.811,2.425,6.583,3.233,7.968C35.52,30.255,37.136,28.292,39.562,26.444L39.562,26.444z"/>
		<path id="path37" fill="#43B02A" stroke="#43B02A" stroke-width="0.25" d="M53.534,18.13c0.809-2.079,2.31-5.081,4.735-8.199
			c-1.501-2.656-3.58-5.312-6.352-7.621c-2.194,2.771-3.695,5.543-4.734,8.314C50.301,13.28,52.264,16.051,53.534,18.13
			L53.534,18.13z"/>
		<path id="path39" fill="#43B02A" stroke="#43B02A" stroke-width="0.25" d="M32.171,34.759L32.171,34.759
			c-1.848-0.346-5.543-0.924-9.816-0.577c2.541,3.58,5.428,5.889,7.044,6.929C29.284,41.226,30.208,38.108,32.171,34.759
			L32.171,34.759z"/>
		<path id="path43" fill="#43B02A" stroke="#43B02A" stroke-width="0.25" d="M14.964,47.23c4.157-2.656,8.083-3.811,10.74-4.157
			c-2.079-1.732-5.081-4.503-7.506-8.314c-3.464,0.693-7.044,2.079-10.393,4.388C9.768,42.611,12.309,45.268,14.964,47.23
			L14.964,47.23z"/>
		<path id="path45" fill="#43B02A" stroke="#43B02A" stroke-width="0.25" d="M28.245,46.191c-1.617,0.115-5.659,0.462-10.278,3.233
			c4.273,2.656,8.314,3.926,10.278,4.389l0,0C27.898,51.272,27.898,48.616,28.245,46.191L28.245,46.191L28.245,46.191z"/>
		<path id="path47" fill="#43B02A" stroke="#43B02A" stroke-width="0.25" d="M41.986,12.125c-2.541-1.732-5.774-3.233-9.815-4.157
			c-0.809,3.464-0.924,6.698-0.693,9.469c3.926,1.271,6.929,3.118,9.007,4.619C40.485,19.747,40.832,16.167,41.986,12.125
			L41.986,12.125z"/>
		<path id="path49" fill="#43B02A" stroke="#43B02A" stroke-width="0.25" d="M77.554,3.695c0,0,3.233,9.931,3.349,15.012
			c-3.926,0.924-7.391,2.31-11.202,5.543c2.079,1.039,3.926,2.31,5.659,3.811c1.848,1.617,3.58,2.31,6.005,1.155
			c1.386-0.924,9.123-8.892,9.931-9.931c1.848-1.963,1.386-5.197-0.578-6.698C85.868,8.083,77.554,3.695,77.554,3.695L77.554,3.695z
			"/>
		<path id="path51" fill="#43B02A" stroke="#43B02A" stroke-width="0.25" d="M5.842,35.914c3.464-2.31,6.929-3.811,10.393-4.619
			c-1.501-3.118-2.541-6.698-2.771-10.855C10.114,25.174,7.458,30.486,5.842,35.914L5.842,35.914z"/>
		<path id="path55" fill="#43B02A" stroke="#43B02A" stroke-width="0.25" d="M31.247,30.833c-1.155-2.194-2.656-5.774-3.464-10.162
			c-3.118-0.693-6.583-1.039-10.624-0.462c0.231,4.042,1.386,7.506,2.887,10.509C24.665,30.024,28.591,30.371,31.247,30.833
			L31.247,30.833z"/>
		<path id="path57" fill="#43B02A" stroke="#43B02A" stroke-width="0.25" d="M3.878-1.732"/>
		<path id="path59_1_" fill="#43B02A" stroke="#43B02A" stroke-width="0.25" d="M17.159,16.051L17.159,16.051
			c3.695-0.462,7.16-0.231,10.162,0.347c-0.116-2.887,0.115-6.005,0.808-9.354c1.963-1.155,3.926-2.194,6.005-3.118
			c3.695,0.924,6.698,2.31,9.238,3.927c1.155-2.656,2.656-5.313,4.735-7.968C37.598,1.501,27.667,6.12,20.045,13.28
			c-2.425,2.194-4.619,4.735-6.582,7.391"/>
		<path id="path61" fill="#43B02A" stroke="#43B02A" stroke-width="0.25" d="M3.878-1.732"/>
		<path id="path63" fill="#43B02A" stroke="#43B02A" stroke-width="0.25" d="M3.878-1.732"/>
		<path id="path65" fill="#43B02A" stroke="#43B02A" stroke-width="0.25" d="M3.878-1.732"/>
		<path id="path67" fill="#43B02A" stroke="#43B02A" stroke-width="0.25" d="M5.264,38.223c0.231-0.808,0.347-1.501,0.578-2.31
			C5.611,36.722,5.38,37.53,5.264,38.223L5.264,38.223z"/>
		<path id="path69" fill="#43B02A" stroke="#43B02A" stroke-width="0.25" d="M3.878-1.732"/>
		<path id="path71" fill="#43B02A" stroke="#43B02A" stroke-width="0.25" d="M12.193,49.309c-2.656-2.194-5.312-5.081-7.391-8.661
			c-1.155,5.889-1.155,12.125-0.231,17.899C6.766,54.506,9.421,51.618,12.193,49.309L12.193,49.309z"/>
		<path id="path73" fill="#43B02A" stroke="#43B02A" stroke-width="0.25" d="M3.878-1.732"/>
		<path fill="#43B02A" stroke="#43B02A" stroke-width="0.25" d="M89.794,79.103c-7.275-6.929-8.776-11.432-14.896-6.697
			c-16.745,13.164-40.879,5.312-45.96-15.128c-0.924-0.116-7.391-1.386-13.973-5.89c-3.233,2.541-6.582,6.467-9.354,12.125H5.495
			c10.509,39.725,61.666,48.963,85.339,24.135C94.76,83.491,91.18,80.604,89.794,79.103z M12.886,68.017
			c1.386-4.619,3.349-7.391,3.349-7.391c4.503,1.848,7.853,1.963,7.853,1.963c3.695,9.816,16.629,22.865,32.565,22.865
			c8.776,0,16.744-3.118,22.98-8.43c0.462-0.231,4.735,4.619,6.467,6.467c0.347,0.461,0.347,0.577,0.347,0.577
			C65.429,102.429,29.746,99.773,12.886,68.017z"/>
		<path id="path77" fill="#43B02A" stroke="#43B02A" stroke-width="0.25" d="M3.878-1.732"/>
		<path id="path79" fill="#43B02A" stroke="#43B02A" stroke-width="0.25" d="M72.126,4.619c-3.349,1.616-6.005,3.695-8.083,5.889
			c1.732,3.695,2.541,7.044,3.002,9.123c3.233-2.541,6.467-4.042,8.43-4.85C75.244,12.472,74.436,8.199,72.126,4.619L72.126,4.619z"
			/>
		<path id="path81" fill="#43B02A" stroke="#43B02A" stroke-width="0.25" d="M3.878-1.732"/>
		<path id="path83" fill="#43B02A" stroke="#43B02A" stroke-width="0.25" d="M60.579,14.896c-1.617,2.541-2.541,4.85-3.002,6.121
			l0,0c1.617,0.115,3.233,0.346,4.85,0.693C62.311,20.324,61.733,17.899,60.579,14.896L60.579,14.896z"/>
		<path id="path87" fill="#43B02A" stroke="#43B02A" stroke-width="0.25" d="M61.618,6.12c2.079-1.963,4.504-3.811,7.506-5.428
			c-4.273-1.039-8.661-1.501-13.396-1.501C58.153,1.386,60.117,3.811,61.618,6.12L61.618,6.12z"/>
		<path id="path89" fill="#43B02A" stroke="#43B02A" stroke-width="0.25" d="M3.878-1.732"/>
	</g>
	<g id="g91" transform="translate(8.083511, 62.358512)">
		<g id="g99-Clipped">
			<g id="SVGID_2_">
			</g>
			<defs>
				<filter id="Adobe_OpacityMaskFilter" filterUnits="userSpaceOnUse" x="-5.023" y="-64.793" width="90.785" height="131.503">
					<feColorMatrix  type="matrix" values="1 0 0 0 0  0 1 0 0 0  0 0 1 0 0  0 0 0 1 0"/>
				</filter>
			</defs>
			<mask maskUnits="userSpaceOnUse" x="-5.023" y="-64.793" width="90.785" height="131.503" id="mask-2">
				<g filter="url(#Adobe_OpacityMaskFilter)">
					<path id="path-1" fill="#FFFFFF" d="M16.004,0.23c3.695,9.816,16.629,22.865,32.565,22.865c8.776,0,16.744-3.118,22.98-8.43
						c0.462-0.231,4.735,4.619,6.467,6.467c0.347,0.461,0.347,0.577,0.347,0.577c-21.017,18.36-56.7,15.705-73.56-16.052
						c1.386-4.619,3.349-7.391,3.349-7.391C12.655,0.115,16.004,0.23,16.004,0.23L16.004,0.23z"/>
				</g>
			</mask>
			<g id="g99" mask="url(#mask-2)">
				<g transform="translate(-9.238298, -63.513300)">
					<g id="SVGID_4_">
					</g>
					<defs>
						<filter id="Adobe_OpacityMaskFilter_1_" filterUnits="userSpaceOnUse" x="6.41" y="54.265" width="88.591" height="49.906">
							<feColorMatrix  type="matrix" values="1 0 0 0 0  0 1 0 0 0  0 0 1 0 0  0 0 0 1 0"/>
						</filter>
					</defs>
					<mask maskUnits="userSpaceOnUse" x="6.41" y="54.265" width="88.591" height="49.906" id="mask-4_2_">
						<g filter="url(#Adobe_OpacityMaskFilter_1_)">
							<rect id="path-3_2_" x="4.34" y="-1.155" fill="#FFFFFF" width="90.535" height="103.931"/>
						</g>
					</mask>
					<path mask="url(#mask-4_2_)" fill="#FFFFFF" stroke="#2DB24A" stroke-width="0.25" d="M6.535,54.39v49.656h88.341V54.39H6.535z
						 M14.041,69.171c1.386-4.619,3.349-7.391,3.349-7.391c4.503,1.848,7.853,1.963,7.853,1.963
						c3.695,9.816,16.629,22.865,32.565,22.865c8.776,0,16.744-3.118,22.98-8.43c0.462-0.231,4.735,4.619,6.467,6.467
						c0.347,0.461,0.347,0.577,0.347,0.577C66.583,103.583,30.9,100.928,14.041,69.171z"/>
					<defs>
						<filter id="Adobe_OpacityMaskFilter_2_" filterUnits="userSpaceOnUse" x="41.713" y="129.571" width="0.572" height="0.652">
							<feColorMatrix  type="matrix" values="1 0 0 0 0  0 1 0 0 0  0 0 1 0 0  0 0 0 1 0"/>
						</filter>
					</defs>
					<mask maskUnits="userSpaceOnUse" x="41.713" y="129.571" width="0.572" height="0.652" id="mask-4_4_">
						<g filter="url(#Adobe_OpacityMaskFilter_2_)">
							<rect id="path-3_4_" x="-41.101" y="43.845" fill="#FFFFFF" width="90.535" height="103.931"/>
						</g>
					</mask>
					<path mask="url(#mask-4_4_)" fill="#FFFFFF" stroke="#2DB24A" stroke-width="0.25" d="M42.16,130.223c0,0,0-0.116-0.347-0.577"
						/>
					<g id="use109">
						<path fill="none" stroke="#2DB24A" stroke-width="0.25" d="M4.34-1.155v103.931h90.535V-1.155H4.34z M14.041,69.171
							c1.386-4.619,3.349-7.391,3.349-7.391c4.503,1.848,7.853,1.963,7.853,1.963c3.695,9.816,16.629,22.865,32.565,22.865
							c8.776,0,16.744-3.118,22.98-8.43c0.462-0.231,4.735,4.619,6.467,6.467c0.347,0.461,0.347,0.577,0.347,0.577
							C66.583,103.583,30.9,100.928,14.041,69.171z"/>
						<path fill="none" stroke="#2DB24A" stroke-width="0.25" d="M80.787,78.179c-6.236,5.312-14.204,8.43-22.98,8.43
							c-15.936,0-28.87-13.049-32.565-22.865c0,0-3.349-0.115-7.853-1.963c0,0-1.963,2.771-3.349,7.391
							c16.86,31.757,52.543,34.412,73.56,16.052c0,0,0-0.116-0.347-0.577C85.522,82.798,81.249,77.948,80.787,78.179z"/>
					</g>
				</g>
			</g>
		</g>
	</g>
</g>
</svg>
