<?xml version="1.0" encoding="utf-8"?>
<!-- Generator: Adobe Illustrator 16.0.0, SVG Export Plug-In . SVG Version: 6.00 Build 0)  -->
<!DOCTYPE svg PUBLIC "-//W3C//DTD SVG 1.1//EN" "http://www.w3.org/Graphics/SVG/1.1/DTD/svg11.dtd">
<svg version="1.1" xmlns="http://www.w3.org/2000/svg" xmlns:xlink="http://www.w3.org/1999/xlink" x="0px" y="0px"
	 width="452.978px" height="315px" viewBox="0 0 452.978 315" enable-background="new 0 0 452.978 315" xml:space="preserve">
<g id="Layer_2" display="none">
	<rect x="-76.496" y="-186.888" display="inline" width="607.47" height="646.468"/>
</g>
<g id="Layer_4" display="none">
	<rect x="-52.602" y="-57" display="inline" fill="#32BFC2" width="614" height="407.092"/>
</g>
<g id="Layer_1_copy">
	<path fill="#BCBEC0" d="M11.043,159.273v-3.681c0-1.876,0.094-3.314,0.283-4.306c0.188-0.979,0.661-1.663,1.416-2.041
		c0.755-0.377,1.64-0.613,2.631-0.708c0.991-0.094,2.607-0.307,4.825-0.637c2.229-0.33,4.471-0.685,6.748-1.062
		c7.951-1.699,14.651-4.754,20.09-9.178c5.438-4.424,8.824-9.556,10.157-15.395c0.377-1.888,0.566-4.849,0.566-8.907V52.914
		c0-3.681,0.094-6.583,0.283-8.694c0.188-2.124,1.286-5.214,3.303-9.261c2.018-4.058,5.038-7.644,9.06-10.747
		c10.251-7.916,24.348-11.879,42.279-11.879h4.105c2.171,0,3.728,0.047,4.672,0.142c0.943,0.094,1.651,0.637,2.123,1.628
		c0.472,0.991,0.708,1.723,0.708,2.194s0,1.746,0,3.822v3.256c0,1.51-0.094,2.713-0.283,3.609c-0.188,0.897-0.755,1.487-1.699,1.77
		c-0.944,0.283-1.816,0.472-2.619,0.566s-2.218,0.142-4.247,0.142c-2.029,0-3.893,0.094-5.591,0.283
		c-11.985,0.944-20.291,3.103-24.915,6.5c-4.625,3.386-6.937,8.423-6.937,15.111v61.438c0,12.527-3.492,22.461-10.476,29.81
		c-6.417,6.96-14.439,11.762-24.065,14.404c7.361,2.17,13.589,5.155,18.686,8.965c5.096,3.822,8.659,7.963,10.688,12.434
		c2.029,4.472,3.397,8.199,4.105,11.16c0.708,2.961,1.062,5.91,1.062,8.824v63.56c0,4.246,0.566,7.539,1.699,9.885
		c2.371,4.436,6.748,7.609,13.142,9.545c6.382,1.922,12.823,2.984,19.311,3.172c6.476,0.189,9.815,0.379,10.003,0.566
		c1.522,0.59,2.277,2.785,2.277,6.584v4.246c0,2.441-0.425,4.059-1.274,4.836c-0.85,0.779-2.265,1.275-4.247,1.463h-4.247
		c-7.361,0-14.18-0.602-20.456-1.793s-12.269-3.209-17.978-6.016c-5.709-2.832-10.216-6.984-13.519-12.48
		c-3.303-5.498-4.955-12.068-4.955-19.725v-61.579c0-4.612-0.283-8.058-0.85-10.311c-1.899-7.35-6.677-13.142-14.345-17.376
		c-7.667-4.235-15.949-6.689-24.844-7.35c-1.899-0.177-3.244-0.366-4.046-0.555c-0.814-0.188-1.451-0.731-1.923-1.628
		C11.279,162.541,11.043,161.149,11.043,159.273z"/>
	<path fill="#BCBEC0" d="M331.575,292.057c0-1.322,0.094-2.406,0.282-3.256c0.189-0.85,0.425-1.533,0.708-2.053
		s0.85-0.873,1.711-1.063c0.85-0.188,1.675-0.33,2.478-0.424c0.813-0.094,2.182-0.143,4.116-0.143c1.947,0,3.669-0.094,5.191-0.283
		c7.384-0.564,13.389-1.627,18.024-3.184c4.637-1.559,7.928-3.492,9.874-5.805c1.935-2.313,3.15-4.389,3.622-6.229
		s0.708-4.129,0.708-6.865v-62.57c0-20.856,11.513-35.154,34.54-42.893c-23.027-7.739-34.54-21.754-34.54-42.044V52.112
		c0-2.925-0.189-5.308-0.566-7.148c-0.378-1.84-1.486-3.775-3.327-5.804c-1.84-2.029-4.412-3.798-7.715-5.309
		c-7.172-2.925-14.486-4.388-21.941-4.388c-0.756,0-1.77,0.047-3.044,0.142s-2.194,0.142-2.761,0.142
		c-2.736,0-4.624-0.437-5.662-1.321s-1.557-2.808-1.557-5.78v-4.035c0-2.324,0.377-3.905,1.132-4.742s2.313-1.25,4.672-1.25h4.247
		c18.969,0,33.443,3.846,43.411,11.525c8.801,6.748,13.26,15.973,13.354,27.687v61.72c0,4.624,0.283,7.975,0.85,10.051
		c1.711,6.795,6.111,12.457,13.213,16.987c7.09,4.529,15.854,7.219,26.259,8.068c2.938,0.189,4.695,0.755,5.262,1.699
		c0.566,0.943,0.85,2.973,0.85,6.087v2.548c0,1.888-0.095,3.279-0.283,4.176c-0.189,0.896-0.708,1.534-1.569,1.911
		c-0.85,0.378-1.77,0.613-2.761,0.708c-1.002,0.095-2.606,0.307-4.824,0.637c-2.229,0.331-4.389,0.685-6.465,1.063
		c-7.951,1.698-14.604,4.718-19.948,9.06c-5.355,4.341-8.694,9.531-10.016,15.571c-0.377,1.888-0.566,4.86-0.566,8.918v62.995
		c0,7.361-1.745,13.637-5.237,18.828c-3.492,5.189-8.093,9.131-13.802,11.82c-5.71,2.689-11.467,4.623-17.271,5.803
		s-11.679,1.77-17.624,1.77h-6.937c-2.549,0-4.2-0.377-4.955-1.133c-0.755-0.754-1.132-2.594-1.132-5.52V292.057z"/>
	<polygon fill="#016D6A" points="149.293,267.328 149.298,211.541 197.614,183.65 245.926,211.549 245.921,267.336 197.605,295.227
			"/>
	<polygon fill="#25726E" points="201.817,175.442 201.821,137.889 234.344,119.115 266.864,137.895 266.862,175.448
		234.339,194.222 	"/>
	<polygon fill="#064444" points="149.297,99.951 191.523,124.335 191.521,173.095 149.29,197.472 	"/>
	<polygon fill="#017C7C" points="284.397,66.902 284.399,40.82 306.988,27.781 329.575,40.824 329.574,66.906 306.985,79.945 	"/>
	<polygon fill="#065D61" points="149.293,88.479 149.297,45.345 186.654,23.781 224.007,45.352 224.005,88.485 186.648,110.049 	"/>
	<g>

			<line fill="none" stroke="#6B6B6B" stroke-width="8" stroke-linecap="round" stroke-miterlimit="10" x1="95.766" y1="53.959" x2="138.433" y2="53.959"/>

			<line fill="none" stroke="#6B6B6B" stroke-width="8" stroke-linecap="round" stroke-miterlimit="10" x1="95.766" y1="83.483" x2="138.433" y2="83.483"/>

			<line fill="none" stroke="#6B6B6B" stroke-width="8" stroke-linecap="round" stroke-miterlimit="10" x1="95.766" y1="113.006" x2="138.433" y2="113.006"/>

			<line fill="none" stroke="#6B6B6B" stroke-width="8" stroke-linecap="round" stroke-miterlimit="10" x1="95.766" y1="142.53" x2="138.433" y2="142.53"/>

			<line fill="none" stroke="#6B6B6B" stroke-width="8" stroke-linecap="round" stroke-miterlimit="10" x1="95.766" y1="172.054" x2="138.433" y2="172.054"/>

			<line fill="none" stroke="#6B6B6B" stroke-width="8" stroke-linecap="round" stroke-miterlimit="10" x1="95.766" y1="201.578" x2="138.433" y2="201.578"/>

			<line fill="none" stroke="#6B6B6B" stroke-width="8" stroke-linecap="round" stroke-miterlimit="10" x1="95.766" y1="231.101" x2="138.433" y2="231.101"/>

			<line fill="none" stroke="#6B6B6B" stroke-width="8" stroke-linecap="round" stroke-miterlimit="10" x1="95.766" y1="260.625" x2="138.433" y2="260.625"/>
	</g>
	<circle fill="#EE3624" cx="345.575" cy="251.572" r="10"/>
	<circle fill="#EE3624" cx="221.341" cy="108.452" r="10"/>
	<circle fill="#EE3624" cx="277.398" cy="103.951" r="10"/>
	<circle fill="#EE3624" cx="311.574" cy="206.572" r="10"/>
	<circle fill="#EE3624" cx="306.986" cy="152.711" r="10"/>
	<circle fill="#EE3624" cx="341.575" cy="103.951" r="10"/>
	<circle fill="#EE3624" cx="277.398" cy="275.333" r="10"/>
	<circle fill="#EE3624" cx="355.575" cy="162.711" r="10"/>
	<circle fill="#EE3624" cx="252.926" cy="48.667" r="10"/>
	<circle fill="#EE3624" cx="257.398" cy="216.572" r="10"/>
</g>
<g id="Layer_3" display="none">
	<text transform="matrix(0.9653 0 0 1 57.7646 -12.5073)" display="inline" font-family="'Helvetica-Bold'" font-size="26.7758">Solid Electrolyte Interphase</text>
	<text transform="matrix(1 0 0 1 67.0879 375.334)" display="inline" font-family="'Helvetica-Bold'" font-size="72">BUILDER</text>
</g>
</svg>
