<?xml version="1.0" encoding="utf-8"?>
<!-- Generator: Adobe Illustrator 16.0.0, SVG Export Plug-In . SVG Version: 6.00 Build 0)  -->
<!DOCTYPE svg PUBLIC "-//W3C//DTD SVG 1.1//EN" "http://www.w3.org/Graphics/SVG/1.1/DTD/svg11.dtd">
<svg version="1.1" xmlns="http://www.w3.org/2000/svg" xmlns:xlink="http://www.w3.org/1999/xlink" x="0px" y="0px"
	 width="452.978px" height="539px" viewBox="0 0 452.978 539" enable-background="new 0 0 452.978 539" xml:space="preserve">
<g id="Layer_2" display="none">
	<rect x="-76.496" y="-56.888" display="inline" width="607.47" height="646.468"/>
</g>
<g id="Layer_4" display="none">
	<rect x="-52.602" y="73" display="inline" fill="#32BFC2" width="614" height="407.092"/>
</g>
<g id="Layer_1_copy">
	<path fill="#808285" d="M11.043,289.273v-3.681c0-1.876,0.094-3.314,0.283-4.306c0.188-0.979,0.661-1.663,1.416-2.041
		c0.755-0.377,1.64-0.613,2.631-0.708c0.991-0.094,2.607-0.307,4.825-0.637c2.229-0.33,4.471-0.685,6.748-1.062
		c7.951-1.699,14.651-4.754,20.09-9.178c5.438-4.424,8.824-9.556,10.157-15.395c0.377-1.888,0.566-4.849,0.566-8.907v-60.446
		c0-3.681,0.094-6.583,0.283-8.694c0.188-2.124,1.286-5.214,3.303-9.261c2.018-4.058,5.038-7.644,9.06-10.747
		c10.251-7.916,24.348-11.879,42.279-11.879h4.105c2.171,0,3.728,0.047,4.672,0.142c0.943,0.094,1.651,0.637,2.123,1.628
		c0.472,0.991,0.708,1.723,0.708,2.194s0,1.746,0,3.822v3.256c0,1.51-0.094,2.713-0.283,3.609c-0.188,0.897-0.755,1.487-1.699,1.77
		c-0.944,0.283-1.816,0.472-2.619,0.566s-2.218,0.142-4.247,0.142c-2.029,0-3.893,0.094-5.591,0.283
		c-11.985,0.944-20.291,3.103-24.915,6.5c-4.625,3.386-6.937,8.423-6.937,15.111v61.438c0,12.527-3.492,22.461-10.476,29.81
		c-6.417,6.96-14.439,11.762-24.065,14.404c7.361,2.17,13.589,5.155,18.686,8.965c5.096,3.822,8.659,7.963,10.688,12.434
		c2.029,4.472,3.397,8.199,4.105,11.16c0.708,2.961,1.062,5.91,1.062,8.824v63.56c0,4.246,0.566,7.539,1.699,9.885
		c2.371,4.436,6.748,7.609,13.142,9.545c6.382,1.922,12.823,2.984,19.311,3.172c6.476,0.189,9.815,0.379,10.003,0.566
		c1.522,0.59,2.277,2.785,2.277,6.584v4.246c0,2.441-0.425,4.059-1.274,4.836c-0.85,0.779-2.265,1.275-4.247,1.463h-4.247
		c-7.361,0-14.18-0.602-20.456-1.793s-12.269-3.209-17.978-6.016c-5.709-2.832-10.216-6.984-13.519-12.48
		c-3.303-5.498-4.955-12.068-4.955-19.725v-61.579c0-4.612-0.283-8.058-0.85-10.311c-1.899-7.35-6.677-13.142-14.345-17.376
		c-7.667-4.235-15.949-6.689-24.844-7.35c-1.899-0.177-3.244-0.366-4.046-0.555c-0.814-0.188-1.451-0.731-1.923-1.628
		C11.279,292.541,11.043,291.149,11.043,289.273z"/>
	<path fill="#808285" d="M331.575,422.057c0-1.322,0.094-2.406,0.282-3.256c0.189-0.85,0.425-1.533,0.708-2.053
		s0.85-0.873,1.711-1.063c0.85-0.188,1.675-0.33,2.478-0.424c0.813-0.094,2.182-0.143,4.116-0.143c1.947,0,3.669-0.094,5.191-0.283
		c7.384-0.564,13.389-1.627,18.024-3.184c4.637-1.559,7.928-3.492,9.874-5.805c1.935-2.313,3.15-4.389,3.622-6.229
		s0.708-4.129,0.708-6.865v-62.57c0-20.856,11.513-35.154,34.54-42.893c-23.027-7.739-34.54-21.754-34.54-42.044v-63.136
		c0-2.925-0.189-5.308-0.566-7.148c-0.378-1.84-1.486-3.775-3.327-5.804c-1.84-2.029-4.412-3.798-7.715-5.309
		c-7.172-2.925-14.486-4.388-21.941-4.388c-0.756,0-1.77,0.047-3.044,0.142s-2.194,0.142-2.761,0.142
		c-2.736,0-4.624-0.437-5.662-1.321s-1.557-2.808-1.557-5.78v-4.035c0-2.324,0.377-3.905,1.132-4.742s2.313-1.25,4.672-1.25h4.247
		c18.969,0,33.443,3.846,43.411,11.525c8.801,6.748,13.26,15.973,13.354,27.687v61.72c0,4.624,0.283,7.975,0.85,10.051
		c1.711,6.795,6.111,12.457,13.213,16.987c7.09,4.529,15.854,7.219,26.259,8.068c2.938,0.189,4.695,0.755,5.262,1.699
		c0.566,0.943,0.85,2.973,0.85,6.087v2.548c0,1.888-0.095,3.279-0.283,4.176c-0.189,0.896-0.708,1.534-1.569,1.911
		c-0.85,0.378-1.77,0.613-2.761,0.708c-1.002,0.095-2.606,0.307-4.824,0.637c-2.229,0.331-4.389,0.685-6.465,1.063
		c-7.951,1.698-14.604,4.718-19.948,9.06c-5.355,4.341-8.694,9.531-10.016,15.571c-0.377,1.888-0.566,4.86-0.566,8.918v62.995
		c0,7.361-1.745,13.637-5.237,18.828c-3.492,5.189-8.093,9.131-13.802,11.82c-5.71,2.689-11.467,4.623-17.271,5.803
		s-11.679,1.77-17.624,1.77h-6.937c-2.549,0-4.2-0.377-4.955-1.133c-0.755-0.754-1.132-2.594-1.132-5.52V422.057z"/>
	<polygon fill="#016D6A" points="149.293,397.328 149.298,341.541 197.614,313.65 245.926,341.549 245.921,397.336 197.605,425.227
			"/>
	<polygon fill="#25726E" points="201.817,305.442 201.821,267.889 234.344,249.115 266.864,267.895 266.862,305.448
		234.339,324.222 	"/>
	<polygon fill="#064444" points="149.297,229.951 191.523,254.335 191.521,303.095 149.29,327.472 	"/>
	<polygon fill="#017C7C" points="284.397,196.902 284.399,170.82 306.988,157.781 329.575,170.824 329.574,196.906 306.985,209.945
			"/>
	<polygon fill="#065D61" points="149.293,218.479 149.297,175.345 186.654,153.781 224.007,175.352 224.005,218.485
		186.648,240.049 	"/>
	<g>

			<line fill="none" stroke="#6B6B6B" stroke-width="8" stroke-linecap="round" stroke-miterlimit="10" x1="95.766" y1="183.959" x2="138.433" y2="183.959"/>

			<line fill="none" stroke="#6B6B6B" stroke-width="8" stroke-linecap="round" stroke-miterlimit="10" x1="95.766" y1="213.483" x2="138.433" y2="213.483"/>

			<line fill="none" stroke="#6B6B6B" stroke-width="8" stroke-linecap="round" stroke-miterlimit="10" x1="95.766" y1="243.006" x2="138.433" y2="243.006"/>

			<line fill="none" stroke="#6B6B6B" stroke-width="8" stroke-linecap="round" stroke-miterlimit="10" x1="95.766" y1="272.53" x2="138.433" y2="272.53"/>

			<line fill="none" stroke="#6B6B6B" stroke-width="8" stroke-linecap="round" stroke-miterlimit="10" x1="95.766" y1="302.054" x2="138.433" y2="302.054"/>

			<line fill="none" stroke="#6B6B6B" stroke-width="8" stroke-linecap="round" stroke-miterlimit="10" x1="95.766" y1="331.578" x2="138.433" y2="331.578"/>

			<line fill="none" stroke="#6B6B6B" stroke-width="8" stroke-linecap="round" stroke-miterlimit="10" x1="95.766" y1="361.101" x2="138.433" y2="361.101"/>

			<line fill="none" stroke="#6B6B6B" stroke-width="8" stroke-linecap="round" stroke-miterlimit="10" x1="95.766" y1="390.625" x2="138.433" y2="390.625"/>
	</g>
	<circle fill="#EE3624" cx="345.575" cy="381.572" r="10"/>
	<circle fill="#EE3624" cx="221.341" cy="238.452" r="10"/>
	<circle fill="#EE3624" cx="277.398" cy="233.951" r="10"/>
	<circle fill="#EE3624" cx="311.574" cy="336.572" r="10"/>
	<circle fill="#EE3624" cx="306.986" cy="282.711" r="10"/>
	<circle fill="#EE3624" cx="341.575" cy="233.951" r="10"/>
	<circle fill="#EE3624" cx="277.398" cy="405.333" r="10"/>
	<circle fill="#EE3624" cx="355.575" cy="292.711" r="10"/>
	<circle fill="#EE3624" cx="252.926" cy="178.667" r="10"/>
	<circle fill="#EE3624" cx="257.398" cy="346.572" r="10"/>
	<g>
		<g>
			<path fill="#414042" d="M62.535,103.527c0.121,0.88,0.357,1.539,0.709,1.974c0.644,0.793,1.748,1.19,3.312,1.19
				c0.937,0,1.697-0.104,2.281-0.314c1.108-0.401,1.662-1.146,1.662-2.236c0-0.636-0.271-1.128-0.814-1.477
				c-0.543-0.34-1.404-0.641-2.583-0.902l-2.014-0.458c-1.979-0.453-3.339-0.946-4.08-1.478c-1.254-0.889-1.88-2.279-1.88-4.17
				c0-1.726,0.613-3.16,1.839-4.301c1.227-1.142,3.028-1.713,5.405-1.713c1.984,0,3.677,0.539,5.078,1.615
				c1.401,1.077,2.136,2.639,2.204,4.687h-3.736c-0.069-1.159-0.569-1.983-1.501-2.471c-0.621-0.322-1.393-0.483-2.316-0.483
				c-1.026,0-1.846,0.209-2.458,0.627c-0.612,0.418-0.918,1.002-0.918,1.752c0,0.688,0.302,1.203,0.906,1.542
				c0.388,0.227,1.212,0.493,2.472,0.798l3.265,0.797c1.431,0.349,2.503,0.815,3.217,1.399c1.109,0.907,1.664,2.218,1.664,3.936
				c0,1.761-0.657,3.223-1.971,4.386s-3.17,1.745-5.568,1.745c-2.449,0-4.375-0.573-5.779-1.719
				c-1.403-1.146-2.105-2.721-2.105-4.726H62.535z"/>
		</g>
		<g>
			<path fill="#414042" d="M88.156,107.732c-1.161,1.484-2.924,2.227-5.288,2.227s-4.127-0.743-5.288-2.227
				c-1.161-1.485-1.742-3.272-1.742-5.363c0-2.055,0.581-3.836,1.742-5.342c1.161-1.507,2.924-2.26,5.288-2.26
				s4.127,0.753,5.288,2.26c1.161,1.506,1.742,3.288,1.742,5.342C89.897,104.46,89.317,106.248,88.156,107.732z M85.278,105.673
				c0.563-0.774,0.846-1.875,0.846-3.303c0-1.427-0.282-2.526-0.846-3.296c-0.564-0.771-1.372-1.156-2.423-1.156
				s-1.861,0.385-2.429,1.156c-0.568,0.77-0.852,1.869-0.852,3.296c0,1.428,0.284,2.529,0.852,3.303
				c0.568,0.774,1.377,1.162,2.429,1.162S84.714,106.447,85.278,105.673z"/>
		</g>
		<g>
			<path fill="#414042" d="M96.145,109.476h-3.597V90.204h3.597V109.476z"/>
		</g>
		<g>
			<path fill="#414042" d="M103.351,93.525h-3.647v-3.439h3.647V93.525z M99.704,95.225h3.647v14.251h-3.647V95.225z"/>
		</g>
		<g>
			<path fill="#414042" d="M114.129,95.454c0.647,0.379,1.173,0.904,1.578,1.575V90.23h3.647v19.245h-3.496v-1.974
				c-0.514,0.845-1.098,1.46-1.754,1.843c-0.656,0.384-1.473,0.575-2.449,0.575c-1.607,0-2.959-0.673-4.058-2.02
				c-1.098-1.347-1.647-3.075-1.647-5.184c0-2.432,0.541-4.345,1.622-5.74c1.081-1.394,2.526-2.092,4.335-2.092
				C112.741,94.885,113.481,95.074,114.129,95.454z M115.013,105.605c0.53-0.784,0.795-1.799,0.795-3.046
				c0-1.743-0.425-2.99-1.274-3.739c-0.522-0.453-1.128-0.68-1.817-0.68c-1.052,0-1.824,0.412-2.316,1.236s-0.738,1.846-0.738,3.066
				c0,1.316,0.25,2.369,0.75,3.157c0.501,0.789,1.26,1.183,2.278,1.183S114.482,106.39,115.013,105.605z"/>
		</g>
		<g>
			<path fill="#414042" d="M143.852,93.617h-9.844v4.092h9.037v3.347h-9.037v4.955h10.299v3.465h-14.098V90.204h13.643V93.617z"/>
		</g>
		<g>
			<path fill="#414042" d="M150.717,109.476h-3.597V90.204h3.597V109.476z"/>
		</g>
		<g>
			<path fill="#414042" d="M163.19,95.514c0.959,0.445,1.752,1.148,2.377,2.108c0.563,0.847,0.929,1.829,1.096,2.946
				c0.097,0.655,0.136,1.598,0.119,2.828h-10.02c0.056,1.43,0.536,2.432,1.438,3.007c0.549,0.357,1.21,0.536,1.983,0.536
				c0.819,0,1.485-0.217,1.997-0.653c0.279-0.235,0.526-0.563,0.74-0.98h3.672c-0.097,0.845-0.541,1.704-1.333,2.575
				c-1.232,1.386-2.957,2.079-5.175,2.079c-1.831,0-3.446-0.584-4.846-1.753s-2.099-3.071-2.099-5.706
				c0-2.468,0.631-4.362,1.895-5.679c1.263-1.317,2.903-1.976,4.919-1.976C161.152,94.846,162.23,95.068,163.19,95.514z
				 M157.809,98.732c-0.508,0.542-0.828,1.278-0.958,2.206h6.197c-0.065-0.989-0.385-1.739-0.958-2.251
				c-0.574-0.512-1.285-0.769-2.133-0.769C159.033,97.918,158.317,98.189,157.809,98.732z"/>
		</g>
		<g>
			<path fill="#414042" d="M176.83,100.337c-0.067-0.532-0.24-1.011-0.519-1.438c-0.405-0.575-1.033-0.863-1.885-0.863
				c-1.215,0-2.046,0.624-2.493,1.87c-0.236,0.661-0.354,1.539-0.354,2.634c0,1.043,0.118,1.882,0.354,2.517
				c0.43,1.186,1.24,1.778,2.429,1.778c0.843,0,1.442-0.235,1.796-0.706s0.569-1.081,0.646-1.83h3.672
				c-0.084,1.133-0.48,2.205-1.188,3.216c-1.129,1.63-2.8,2.445-5.015,2.445c-2.215,0-3.845-0.68-4.89-2.04
				c-1.044-1.36-1.566-3.123-1.566-5.289c0-2.444,0.577-4.347,1.731-5.707c1.154-1.359,2.746-2.04,4.775-2.04
				c1.727,0,3.139,0.401,4.238,1.203c1.099,0.802,1.75,2.218,1.952,4.249H176.83z"/>
		</g>
		<g>
			<path fill="#414042" d="M181.563,98.01v-2.654h1.918v-3.975h3.559v3.975h2.234v2.654h-2.234v7.53
				c0,0.584,0.071,0.948,0.214,1.092c0.143,0.144,0.581,0.216,1.313,0.216c0.109,0,0.225-0.002,0.347-0.006s0.242-0.011,0.36-0.02
				v2.785l-1.704,0.065c-1.7,0.061-2.861-0.244-3.483-0.916c-0.404-0.427-0.605-1.085-0.605-1.974V98.01H181.563z"/>
		</g>
		<g>
			<path fill="#414042" d="M199.225,94.892c0.046,0.004,0.149,0.011,0.31,0.02v3.817c-0.228-0.026-0.429-0.043-0.606-0.052
				c-0.177-0.008-0.32-0.013-0.429-0.013c-1.447,0-2.419,0.488-2.916,1.464c-0.277,0.549-0.417,1.395-0.417,2.537v6.812h-3.622
				V95.225h3.433v2.484c0.555-0.95,1.039-1.6,1.451-1.948c0.673-0.584,1.548-0.876,2.625-0.876
				C199.122,94.885,199.179,94.887,199.225,94.892z"/>
		</g>
		<g>
			<path fill="#414042" d="M213.115,107.732c-1.161,1.484-2.924,2.227-5.288,2.227s-4.127-0.743-5.288-2.227
				c-1.161-1.485-1.742-3.272-1.742-5.363c0-2.055,0.581-3.836,1.742-5.342c1.161-1.507,2.924-2.26,5.288-2.26
				s4.127,0.753,5.288,2.26c1.161,1.506,1.742,3.288,1.742,5.342C214.856,104.46,214.276,106.248,213.115,107.732z M210.237,105.673
				c0.563-0.774,0.846-1.875,0.846-3.303c0-1.427-0.282-2.526-0.846-3.296c-0.564-0.771-1.372-1.156-2.423-1.156
				s-1.861,0.385-2.429,1.156c-0.568,0.77-0.852,1.869-0.852,3.296c0,1.428,0.284,2.529,0.852,3.303
				c0.568,0.774,1.377,1.162,2.429,1.162S209.673,106.447,210.237,105.673z"/>
		</g>
		<g>
			<path fill="#414042" d="M221.104,109.476h-3.597V90.204h3.597V109.476z"/>
		</g>
		<g>
			<path fill="#414042" d="M225.155,112.208l0.455,0.026c0.353,0.017,0.689,0.004,1.009-0.04s0.589-0.144,0.808-0.3
				c0.21-0.148,0.405-0.458,0.587-0.929c0.181-0.47,0.259-0.758,0.233-0.863l-5.055-14.878h4.001l3.004,10.512l2.839-10.512h3.824
				l-4.716,14.016c-0.911,2.702-1.633,4.377-2.163,5.027s-1.592,0.974-3.184,0.974c-0.32,0-0.577-0.002-0.771-0.006
				c-0.194-0.004-0.485-0.02-0.872-0.046V112.208z"/>
		</g>
		<g>
			<path fill="#414042" d="M237.573,98.01v-2.654h1.919v-3.975h3.559v3.975h2.234v2.654h-2.234v7.53
				c0,0.584,0.071,0.948,0.215,1.092c0.143,0.144,0.581,0.216,1.313,0.216c0.109,0,0.225-0.002,0.347-0.006s0.242-0.011,0.36-0.02
				v2.785l-1.704,0.065c-1.699,0.061-2.86-0.244-3.483-0.916c-0.403-0.427-0.605-1.085-0.605-1.974V98.01H237.573z"/>
		</g>
		<g>
			<path fill="#414042" d="M256.559,95.514c0.96,0.445,1.753,1.148,2.378,2.108c0.563,0.847,0.929,1.829,1.096,2.946
				c0.097,0.655,0.137,1.598,0.118,2.828h-10.019c0.056,1.43,0.535,2.432,1.438,3.007c0.549,0.357,1.21,0.536,1.982,0.536
				c0.82,0,1.485-0.217,1.998-0.653c0.279-0.235,0.525-0.563,0.74-0.98h3.672c-0.097,0.845-0.541,1.704-1.333,2.575
				c-1.232,1.386-2.958,2.079-5.176,2.079c-1.831,0-3.446-0.584-4.846-1.753s-2.1-3.071-2.1-5.706c0-2.468,0.632-4.362,1.896-5.679
				c1.264-1.317,2.903-1.976,4.919-1.976C254.521,94.846,255.6,95.068,256.559,95.514z M251.178,98.732
				c-0.508,0.542-0.827,1.278-0.958,2.206h6.197c-0.065-0.989-0.385-1.739-0.959-2.251c-0.573-0.512-1.284-0.769-2.133-0.769
				C252.401,97.918,251.687,98.189,251.178,98.732z"/>
		</g>
		<g>
			<path fill="#414042" d="M272.988,109.476h-3.862V90.204h3.862V109.476z"/>
		</g>
		<g>
			<path fill="#414042" d="M287.426,96.042c0.9,0.771,1.352,2.05,1.352,3.837v9.596h-3.686v-8.668c0-0.75-0.096-1.325-0.288-1.726
				c-0.352-0.732-1.02-1.098-2.005-1.098c-1.211,0-2.042,0.536-2.493,1.608c-0.233,0.567-0.351,1.291-0.351,2.17v7.714h-3.597
				V95.251h3.483v2.079c0.46-0.732,0.896-1.259,1.307-1.582c0.737-0.575,1.672-0.863,2.803-0.863
				C285.367,94.885,286.525,95.271,287.426,96.042z"/>
		</g>
		<g>
			<path fill="#414042" d="M290.707,98.01v-2.654h1.919v-3.975h3.559v3.975h2.234v2.654h-2.234v7.53
				c0,0.584,0.071,0.948,0.215,1.092c0.143,0.144,0.581,0.216,1.313,0.216c0.109,0,0.225-0.002,0.347-0.006s0.242-0.011,0.36-0.02
				v2.785l-1.704,0.065c-1.699,0.061-2.86-0.244-3.483-0.916c-0.403-0.427-0.605-1.085-0.605-1.974V98.01H290.707z"/>
		</g>
		<g>
			<path fill="#414042" d="M309.692,95.514c0.96,0.445,1.753,1.148,2.378,2.108c0.563,0.847,0.929,1.829,1.096,2.946
				c0.097,0.655,0.137,1.598,0.118,2.828h-10.019c0.056,1.43,0.535,2.432,1.438,3.007c0.549,0.357,1.21,0.536,1.982,0.536
				c0.82,0,1.485-0.217,1.998-0.653c0.279-0.235,0.525-0.563,0.74-0.98h3.672c-0.097,0.845-0.541,1.704-1.333,2.575
				c-1.232,1.386-2.958,2.079-5.176,2.079c-1.831,0-3.446-0.584-4.846-1.753s-2.1-3.071-2.1-5.706c0-2.468,0.632-4.362,1.896-5.679
				c1.264-1.317,2.903-1.976,4.919-1.976C307.654,94.846,308.733,95.068,309.692,95.514z M304.312,98.732
				c-0.508,0.542-0.827,1.278-0.958,2.206h6.197c-0.065-0.989-0.385-1.739-0.959-2.251c-0.573-0.512-1.284-0.769-2.133-0.769
				C305.535,97.918,304.82,98.189,304.312,98.732z"/>
		</g>
		<g>
			<path fill="#414042" d="M322.745,94.892c0.046,0.004,0.149,0.011,0.31,0.02v3.817c-0.228-0.026-0.43-0.043-0.606-0.052
				c-0.176-0.008-0.319-0.013-0.429-0.013c-1.447,0-2.419,0.488-2.915,1.464c-0.278,0.549-0.417,1.395-0.417,2.537v6.812h-3.622
				V95.225h3.433v2.484c0.556-0.95,1.039-1.6,1.452-1.948c0.673-0.584,1.548-0.876,2.625-0.876
				C322.643,94.885,322.699,94.887,322.745,94.892z"/>
		</g>
		<g>
			<path fill="#414042" d="M336.731,96.754c1.122,1.229,1.684,3.033,1.684,5.413c0,2.51-0.549,4.424-1.646,5.74
				s-2.509,1.974-4.236,1.974c-1.101,0-2.016-0.283-2.743-0.85c-0.398-0.314-0.788-0.771-1.169-1.373v7.426h-3.56v-19.86h3.446
				v2.105c0.389-0.619,0.804-1.106,1.244-1.464c0.805-0.636,1.762-0.954,2.871-0.954C334.24,94.911,335.609,95.525,336.731,96.754z
				 M333.971,99.435c-0.488-0.845-1.281-1.268-2.377-1.268c-1.318,0-2.224,0.641-2.717,1.922c-0.255,0.68-0.382,1.543-0.382,2.589
				c0,1.656,0.429,2.819,1.286,3.491c0.511,0.392,1.114,0.588,1.812,0.588c1.012,0,1.783-0.401,2.314-1.203
				c0.531-0.802,0.797-1.87,0.797-3.203C334.704,101.252,334.46,100.28,333.971,99.435z"/>
		</g>
		<g>
			<path fill="#414042" d="M350.838,95.304c0.69,0.305,1.259,0.772,1.702,1.4c0.377,0.533,0.607,1.08,0.691,1.643
				s0.126,1.481,0.126,2.754v8.375h-3.673v-8.678c0-0.768-0.125-1.388-0.376-1.859c-0.325-0.663-0.943-0.995-1.854-0.995
				c-0.944,0-1.66,0.33-2.149,0.988c-0.488,0.659-0.732,1.599-0.732,2.82v7.723h-3.597V90.27h3.597v6.799
				c0.52-0.828,1.12-1.406,1.803-1.732c0.684-0.327,1.401-0.49,2.155-0.49C349.378,94.846,350.146,94.999,350.838,95.304z"/>
		</g>
		<g>
			<path fill="#414042" d="M362.188,100.808c0.67-0.087,1.148-0.196,1.437-0.327c0.518-0.227,0.776-0.58,0.776-1.059
				c0-0.583-0.199-0.987-0.596-1.209c-0.396-0.223-0.979-0.333-1.746-0.333c-0.861,0-1.471,0.218-1.829,0.654
				c-0.256,0.322-0.427,0.758-0.512,1.307h-3.471c0.076-1.246,0.414-2.271,1.014-3.072c0.955-1.255,2.595-1.883,4.918-1.883
				c1.513,0,2.856,0.31,4.031,0.928c1.175,0.619,1.762,1.787,1.762,3.504v6.537c0,0.453,0.008,1.002,0.025,1.647
				c0.025,0.488,0.097,0.819,0.215,0.994c0.117,0.174,0.294,0.318,0.529,0.431v0.549h-3.912c-0.109-0.288-0.186-0.558-0.228-0.811
				s-0.075-0.541-0.101-0.863c-0.499,0.558-1.075,1.033-1.727,1.425c-0.778,0.462-1.659,0.693-2.641,0.693
				c-1.253,0-2.287-0.368-3.104-1.104s-1.225-1.78-1.225-3.131c0-1.752,0.656-3.02,1.97-3.805c0.721-0.427,1.78-0.732,3.179-0.915
				L362.188,100.808z M364.388,102.546c-0.229,0.148-0.462,0.268-0.697,0.359c-0.234,0.092-0.556,0.177-0.966,0.255l-0.818,0.157
				c-0.768,0.139-1.318,0.309-1.653,0.51c-0.566,0.34-0.85,0.867-0.85,1.582c0,0.636,0.173,1.096,0.519,1.379
				s0.767,0.425,1.263,0.425c0.786,0,1.51-0.235,2.172-0.706s1.006-1.329,1.031-2.576V102.546z"/>
		</g>
		<g>
			<path fill="#414042" d="M373.904,104.926c0.076,0.663,0.241,1.133,0.494,1.412c0.448,0.497,1.277,0.745,2.486,0.745
				c0.71,0,1.274-0.109,1.692-0.327c0.419-0.218,0.628-0.545,0.628-0.981c0-0.418-0.169-0.736-0.506-0.954s-1.592-0.593-3.763-1.125
				c-1.563-0.401-2.665-0.902-3.304-1.503c-0.64-0.593-0.959-1.447-0.959-2.563c0-1.316,0.499-2.447,1.498-3.393
				c0.999-0.945,2.405-1.418,4.219-1.418c1.72,0,3.121,0.355,4.205,1.066c1.083,0.71,1.705,1.937,1.865,3.68h-3.597
				c-0.051-0.479-0.182-0.858-0.393-1.138c-0.396-0.505-1.071-0.758-2.024-0.758c-0.785,0-1.344,0.126-1.677,0.379
				c-0.334,0.253-0.5,0.549-0.5,0.889c0,0.427,0.177,0.736,0.531,0.928c0.354,0.201,1.606,0.545,3.756,1.033
				c1.433,0.349,2.507,0.876,3.222,1.582c0.707,0.715,1.061,1.608,1.061,2.68c0,1.412-0.508,2.565-1.524,3.458
				c-1.016,0.894-2.586,1.34-4.71,1.34c-2.167,0-3.767-0.473-4.8-1.418c-1.032-0.946-1.549-2.151-1.549-3.615H373.904z"/>
		</g>
		<g>
			<path fill="#414042" d="M394.454,95.514c0.96,0.445,1.753,1.148,2.378,2.108c0.563,0.847,0.929,1.829,1.096,2.946
				c0.097,0.655,0.137,1.598,0.118,2.828h-10.019c0.056,1.43,0.535,2.432,1.438,3.007c0.549,0.357,1.21,0.536,1.982,0.536
				c0.82,0,1.485-0.217,1.998-0.653c0.279-0.235,0.525-0.563,0.74-0.98h3.672c-0.097,0.845-0.541,1.704-1.333,2.575
				c-1.232,1.386-2.958,2.079-5.176,2.079c-1.831,0-3.446-0.584-4.846-1.753s-2.1-3.071-2.1-5.706c0-2.468,0.632-4.362,1.896-5.679
				c1.264-1.317,2.903-1.976,4.919-1.976C392.416,94.846,393.495,95.068,394.454,95.514z M389.073,98.732
				c-0.508,0.542-0.827,1.278-0.958,2.206h6.197c-0.065-0.989-0.385-1.739-0.959-2.251c-0.573-0.512-1.284-0.769-2.133-0.769
				C390.297,97.918,389.582,98.189,389.073,98.732z"/>
		</g>
	</g>
	<g>
		<g>
			<path fill="#414042" d="M182.348,60.32c0.335,2.368,0.993,4.137,1.974,5.309c1.795,2.133,4.87,3.199,9.226,3.199
				c2.608,0,4.726-0.281,6.353-0.844c3.087-1.078,4.631-3.082,4.631-6.012c0-1.71-0.756-3.035-2.268-3.973
				c-1.513-0.914-3.911-1.723-7.195-2.426l-5.61-1.23c-5.514-1.218-9.302-2.543-11.364-3.973c-3.493-2.391-5.238-6.129-5.238-11.215
				c0-4.641,1.708-8.496,5.125-11.566c3.417-3.07,8.435-4.605,15.055-4.605c5.528,0,10.243,1.447,14.146,4.342
				c3.903,2.895,5.949,7.096,6.139,12.604h-10.406c-0.192-3.117-1.586-5.332-4.181-6.645c-1.73-0.867-3.88-1.301-6.451-1.301
				c-2.86,0-5.142,0.563-6.849,1.688c-1.706,1.125-2.559,2.695-2.559,4.711c0,1.852,0.841,3.234,2.523,4.148
				c1.081,0.61,3.375,1.324,6.885,2.145l9.094,2.145c3.986,0.938,6.973,2.192,8.963,3.762c3.089,2.438,4.633,5.965,4.633,10.582
				c0,4.734-1.831,8.666-5.49,11.795c-3.66,3.129-8.831,4.693-15.511,4.693c-6.822,0-12.188-1.541-16.097-4.623
				c-3.909-3.082-5.863-7.318-5.863-12.709H182.348z"/>
		</g>
		<g>
			<path fill="#414042" d="M260.887,33.672h-27.422v11.004h25.172v9h-25.172V67h28.688v9.316h-39.27v-51.82h38.004V33.672z"/>
		</g>
		<g>
			<path fill="#414042" d="M280.469,76.316h-10.758v-51.82h10.758V76.316z"/>
		</g>
	</g>
	<g>
		<g>
			<path fill="#414042" d="M111.221,466.033c1.585,2.203,2.378,4.84,2.378,7.91c0,3.164-0.8,5.707-2.4,7.629
				c-0.895,1.078-2.211,2.063-3.952,2.953c2.644,0.961,4.64,2.484,5.986,4.57c1.346,2.086,2.019,4.617,2.019,7.594
				c0,3.07-0.769,5.824-2.307,8.262c-0.979,1.617-2.202,2.977-3.67,4.078c-1.655,1.266-3.606,2.133-5.855,2.602
				c-2.249,0.469-4.689,0.703-7.322,0.703H72.748v-51.82h25.043C104.11,460.607,108.586,462.447,111.221,466.033z M83.084,469.514
				v11.426h12.595c2.25,0,4.077-0.428,5.48-1.283c1.403-0.855,2.105-2.373,2.105-4.553c0-2.414-0.928-4.008-2.783-4.781
				c-1.601-0.539-3.642-0.809-6.124-0.809H83.084z M83.084,489.518v13.816h12.581c2.247,0,3.996-0.305,5.248-0.914
				c2.271-1.125,3.406-3.281,3.406-6.469c0-2.695-1.101-4.547-3.301-5.555c-1.229-0.563-2.954-0.855-5.179-0.879H83.084z"/>
		</g>
		<g>
			<path fill="#414042" d="M124.568,460.514h11.004v31.826c0,3.559,0.42,6.158,1.261,7.798c1.308,2.904,4.157,4.356,8.547,4.356
				c4.367,0,7.204-1.452,8.512-4.356c0.84-1.64,1.261-4.239,1.261-7.798v-31.826h11.004v31.852c0,5.508-0.854,9.797-2.563,12.867
				c-3.182,5.625-9.254,8.438-18.215,8.438s-15.045-2.813-18.25-8.438c-1.708-3.07-2.562-7.359-2.562-12.867V460.514z"/>
		</g>
		<g>
			<path fill="#414042" d="M186.444,512.334h-10.758v-51.82h10.758V512.334z"/>
		</g>
		<g>
			<path fill="#414042" d="M196.569,460.514h10.828v42.504h25.875v9.316h-36.703V460.514z"/>
		</g>
		<g>
			<path fill="#414042" d="M270.914,461.639c3.635,1.195,6.578,3.387,8.83,6.574c1.807,2.578,3.037,5.367,3.695,8.367
				c0.656,3,0.984,5.859,0.984,8.578c0,6.891-1.385,12.727-4.15,17.508c-3.754,6.445-9.547,9.668-17.381,9.668h-22.344v-51.82
				h22.344C266.105,460.561,268.779,460.936,270.914,461.639z M251.061,469.514v33.82h10c5.119,0,8.686-2.52,10.705-7.559
				c1.104-2.766,1.654-6.059,1.654-9.879c0-5.273-0.828-9.322-2.482-12.146s-4.947-4.236-9.877-4.236H251.061z"/>
		</g>
		<g>
			<path fill="#414042" d="M330.865,469.689h-27.422v11.004h25.172v9h-25.172v13.324h28.688v9.316h-39.27v-51.82h38.004V469.689z"/>
		</g>
		<g>
			<path fill="#414042" d="M373.777,461.85c1.908,0.82,3.525,2.027,4.852,3.621c1.096,1.313,1.965,2.766,2.605,4.359
				c0.639,1.594,0.959,3.41,0.959,5.449c0,2.461-0.621,4.881-1.863,7.26s-3.293,4.061-6.152,5.045
				c2.391,0.961,4.084,2.326,5.08,4.096s1.494,4.471,1.494,8.104v3.48c0,2.367,0.096,3.973,0.285,4.816
				c0.287,1.336,0.953,2.32,2,2.953v1.301h-11.953c-0.328-1.148-0.563-2.074-0.703-2.777c-0.281-1.453-0.434-2.941-0.457-4.465
				l-0.07-4.816c-0.045-3.305-0.615-5.508-1.713-6.609s-3.154-1.652-6.168-1.652h-10.576v20.32h-10.582v-51.82h24.787
				C369.143,460.584,371.869,461.029,373.777,461.85z M351.396,469.514v13.922h11.654c2.314,0,4.051-0.281,5.207-0.844
				c2.049-0.984,3.072-2.93,3.072-5.836c0-3.141-0.99-5.25-2.971-6.328c-1.113-0.609-2.783-0.914-5.008-0.914H351.396z"/>
		</g>
	</g>
</g>
<g id="Layer_3" display="none">
	<text transform="matrix(0.9653 0 0 1 57.7646 117.4927)" display="inline" font-family="'Helvetica-Bold'" font-size="26.7758">Solid Electrolyte Interphase</text>
	<text transform="matrix(1 0 0 1 169.0586 84.3335)" display="inline" font-family="'Helvetica-Bold'" font-size="72">SEI</text>
	<text transform="matrix(1 0 0 1 67.0879 505.334)" display="inline" font-family="'Helvetica-Bold'" font-size="72">BUILDER</text>
</g>
</svg>
